<?xml version="1.0" encoding="UTF-8" standalone="no"?>
<!-- Generator: Adobe Illustrator 20.1.0, SVG Export Plug-In . SVG Version: 6.00 Build 0)  -->

<svg
   xmlns:dc="http://purl.org/dc/elements/1.1/"
   xmlns:cc="http://creativecommons.org/ns#"
   xmlns:rdf="http://www.w3.org/1999/02/22-rdf-syntax-ns#"
   xmlns:svg="http://www.w3.org/2000/svg"
   xmlns="http://www.w3.org/2000/svg"
   xmlns:sodipodi="http://sodipodi.sourceforge.net/DTD/sodipodi-0.dtd"
   xmlns:inkscape="http://www.inkscape.org/namespaces/inkscape"
   version="1.1"
   id="Ebene_1"
   x="0px"
   y="0px"
   viewBox="0 0 630 400"
   xml:space="preserve"
   inkscape:version="0.48.4 r9939"
   width="100%"
   height="100%"
   sodipodi:docname="liima.svg"><metadata
     id="metadata31"><rdf:RDF><cc:Work
         rdf:about=""><dc:format>image/svg+xml</dc:format><dc:type
           rdf:resource="http://purl.org/dc/dcmitype/StillImage" /></cc:Work></rdf:RDF></metadata><defs
     id="defs29" /><sodipodi:namedview
     pagecolor="#ffffff"
     bordercolor="#666666"
     borderopacity="1"
     objecttolerance="10"
     gridtolerance="10"
     guidetolerance="10"
     inkscape:pageopacity="0"
     inkscape:pageshadow="2"
     inkscape:window-width="1875"
     inkscape:window-height="1176"
     id="namedview27"
     showgrid="false"
     inkscape:zoom="1.3873382"
     inkscape:cx="169.10538"
     inkscape:cy="211.22622"
     inkscape:window-x="45"
     inkscape:window-y="24"
     inkscape:window-maximized="1"
     inkscape:current-layer="Ebene_1" /><style
     type="text/css"
     id="style3">
	.st0{fill:#17202F;}
	.st1{fill:#EAEAF4;}
	.st2{fill:#D32C7B;}
</style><rect
     class="st0"
     width="637.19147"
     height="405.00751"
     id="rect5"
     x="-0.72079808"
     y="-1.2253635"
     style="fill:#17202f" /><g
     id="g7"
     transform="translate(-100.91267,-99.25479)"><g
       id="g9"><g
         id="g11"><g
           id="g13"><path
             class="st1"
             d="m 179.8,212.7 h 12.5 v 155.8 h 72 V 380 H 179.8 V 212.7 z"
             id="path15"
             inkscape:connector-curvature="0"
             style="fill:#eaeaf4" /><path
             class="st1"
             d="m 282.8,259.1 h 12 v 121 h -12 v -121 z"
             id="path17"
             inkscape:connector-curvature="0"
             style="fill:#eaeaf4" /><path
             class="st1"
             d="m 322.2,259.1 h 12 v 121 h -12 v -121 z"
             id="path19"
             inkscape:connector-curvature="0"
             style="fill:#eaeaf4" /><path
             class="st1"
             d="m 361.3,259.1 h 12 v 23.3 c 5.3,-14.2 16.1,-25.2 37.9,-25.2 18.7,0 31.9,10.3 37.2,27.8 5.5,-18 19.7,-27.8 42,-27.8 24.7,0 40.6,18.7 40.6,48.2 V 380 h -12 v -72.2 c 0,-24.2 -12.2,-39.4 -31.7,-39.4 -21.6,0 -35.3,18.2 -35.3,45.4 V 380 h -12 v -72.2 c 0,-24.2 -12.7,-39.4 -31.9,-39.4 -21.4,0 -34.8,18.7 -34.8,46.6 v 65 h -12 V 259.1 z"
             id="path21"
             inkscape:connector-curvature="0"
             style="fill:#eaeaf4" /><path
             class="st1"
             d="m 612.7,256 c 24.7,0 43,13.7 48,28.3 v -25.2 h 12 v 121 h -12 v -25.2 c -5,14.6 -23.3,28.3 -48,28.3 -34.1,0 -61,-27.1 -61,-63.6 0,-36.5 27.2,-63.6 61,-63.6 z m 0,115.9 c 28.1,0 49.4,-21.8 49.4,-52.3 0,-30.5 -21.4,-52.3 -49.4,-52.3 -27.8,0 -49,22.8 -49,52.3 0,29.7 21.2,52.3 49,52.3 z"
             id="path23"
             inkscape:connector-curvature="0"
             style="fill:#eaeaf4" /></g></g></g><path
       class="st2"
       d="m 328.6,214.3 c -6.6,0 -12,5.4 -12,12 0,4.5 2.5,8.5 6.2,10.5 -3.3,4.1 -8.5,6.7 -14.3,6.7 -5.8,0 -10.9,-2.6 -14.2,-6.6 3.8,-2 6.3,-6 6.3,-10.6 0,-6.6 -5.4,-12 -12,-12 -6.6,0 -12,5.4 -12,12 0,6.6 5.4,12 12,12 0.6,0 1.1,-0.1 1.6,-0.1 4,5.6 10.7,9.3 18.3,9.3 7.6,0 14.3,-3.7 18.3,-9.3 0.6,0.1 1.2,0.1 1.8,0.1 6.6,0 12,-5.4 12,-12 0,-6.6 -5.4,-12 -12,-12 z"
       id="path25"
       inkscape:connector-curvature="0"
       style="fill:#d32c7b" /></g></svg>